<?xml version="1.0" encoding="UTF-8" standalone="no"?><!DOCTYPE svg PUBLIC "-//W3C//DTD SVG 1.1//EN" "http://www.w3.org/Graphics/SVG/1.1/DTD/svg11.dtd"><svg width="100%" height="100%" viewBox="0 0 777 392" version="1.1" xmlns="http://www.w3.org/2000/svg" xmlns:xlink="http://www.w3.org/1999/xlink" xml:space="preserve" xmlns:serif="http://www.serif.com/" style="fill-rule:evenodd;clip-rule:evenodd;stroke-linejoin:round;stroke-miterlimit:2;"><g><rect x="0" y="0" width="776.241" height="391.249" style="fill:#fff;"/><path d="M193.528,65.692l0,113.017c0,21.283 25.934,56.508 63.863,56.508l-0,-36.379c-0,0 -24.384,-5.804 -24.384,-24.771l0,-108.375l-39.479,0Zm136.242,0l-0,113.017c-0,21.283 -25.929,56.508 -63.863,56.508l0,-36.379c0,0 24.384,-5.804 24.384,-24.771l-0,-108.375l39.479,0Zm-147.85,35.221l-139.725,0l-0,-35.221l139.725,0l-0,35.221Zm-50.317,134.304l-37.929,0l0,-125.012l37.929,-0l0,125.012Z" style="fill:#228bcd;"/><path d="M374.278,11.122l-365.754,-0l0,365.366l365.754,0l0,-365.366Zm-9.675,9.675l0,346.016l-346.404,0l0,-346.016l346.404,-0Z" style="fill:#228bcd;"/><path d="M96.382,297.53l12.771,-0l-10.837,48.379l-18.575,0l-6.579,-30.187l-0.392,-0l-6.967,30.187l-18.575,0l-10.45,-48.379l13.159,-0l6.966,37.542l0.388,-0l9.291,-37.542l13.159,-0l8.9,37.542l0.387,-0l7.354,-37.542Zm67.346,48.379l-13.162,0l-0,-48.379l13.162,-0l0,48.379Zm58.829,-29.029l20.9,-0l0,9.296l-20.9,-0l0,9.283l22.45,0l0,10.45l-35.22,0l-0,-48.379l34.833,-0l-0,10.837l-22.063,0l0,8.513Zm81.667,29.029l-12.771,0l0,-48.379l21.671,-0l13.938,37.158l0.383,0l-0.771,-37.158l13.158,-0l0,48.379l-22.062,0l-13.933,-37.154l-0.388,-0l0.775,37.154Zm-267.833,-74.308l303.054,-0l-303.054,-0Zm-0,2.708l303.054,0l-0,-5.804l-303.054,-0l-0,5.804Zm397.883,-226.421l-6.967,0l0,-30.187l-10.841,-0l-0,-6.192l28.254,0l-0,6.192l-10.446,-0l0,30.187Zm21.671,-15.866l12.775,-0l-0,4.254l-12.775,-0l-0,7.354l13.55,-0l-0,4.258l-18.579,0l-0,-27.091l18.579,-0l-0,4.258l-13.55,-0l-0,6.967Zm36.767,-2.325l-0,-1.546c-0,-3.1 -1.155,-3.1 -5.805,-3.1c-5.42,-0 -6.191,0.775 -6.191,6.191l-0,5.809c-0,5.416 0.775,6.579 6.191,6.579c4.255,-0 6.192,-0 6.192,-3.871l0,-1.546l5.029,0l0,1.546c0.392,8.517 -4.646,8.129 -11.221,8.517c-9.675,0.387 -11.22,-3.096 -11.22,-10.838l-0,-6.191c-0,-8.9 3.091,-10.838 11.22,-10.838c6.967,0 10.834,0 11.221,7.742l0,1.546l-5.416,-0Zm35.22,18.191l-5.42,0l-0,-11.612l-12.384,-0l0,11.612l-5.412,0l-0,-27.091l5.412,-0l0,11.225l12.384,-0l-0,-11.225l5.42,-0l0,27.091Zm27.484,-27.091l5.421,-0l-0,27.091l-8.905,0l-11.22,-22.833l-0.392,-0l0.392,22.833l-5.038,0l0,-27.091l8.517,-0l11.616,22.833l-0.391,-22.833Zm13.158,27.091l5.029,0l0,-27.091l-5.029,-0l0,27.091Zm16.642,-8.512l-0,1.162c-0,3.096 1.546,3.484 6.191,3.484c5.03,-0 5.421,-1.163 5.421,-4.259c0,-3.871 -1.937,-3.483 -5.812,-3.483c-6.184,-0.388 -10.834,-0 -10.834,-8.125c0,-7.358 5.03,-7.742 11.221,-7.742c5.804,0 10.067,0.388 10.067,7.354l-0,0.775l-5.038,0l0,-0.775c0,-2.708 -1.154,-3.095 -5.029,-3.095c-5.029,-0 -5.804,0.775 -5.804,3.483c0,3.483 0.775,3.483 5.804,3.871c8.513,0.387 10.842,0.775 10.842,7.737c-0,7.742 -3.483,8.517 -10.842,8.517c-5.804,-0 -11.221,-0 -11.221,-7.742l0,-1.162l5.034,-0Zm39.479,-9.679l-0,-1.546c-0,-3.1 -1.163,-3.1 -5.804,-3.1c-5.038,-0 -6.192,0.775 -6.192,6.191l0,5.809c0.383,5.416 0.775,6.579 6.192,6.579c4.254,-0 6.191,-0 6.191,-3.871l0,-1.546l5.421,0l0,1.546c0,8.517 -4.646,8.129 -11.612,8.517c-9.292,0.387 -11.221,-3.096 -11.221,-10.838l-0,-6.191c-0,-8.9 3.483,-10.838 11.221,-10.838c6.966,0 10.833,0 11.221,7.742l-0,1.546l-5.417,-0Zm35.221,18.191l-5.029,0l-0,-11.612l-12.78,-0l0,11.612l-5.416,0l-0,-27.091l5.416,-0l0,11.225l12.78,-0l-0,-11.225l5.029,-0l-0,27.091Zm12.775,-15.866l12.379,-0l-0,4.254l-12.379,-0l-0,7.354l13.541,-0l0,4.258l-18.958,0l0,-27.091l18.575,-0l0,4.258l-13.158,-0l-0,6.967Zm-222.942,35.608l0,25.542c0,10.45 -6.192,10.837 -15.096,10.837c-8.512,0 -15.087,-0.387 -15.087,-10.837l-0,-25.542l6.966,-0l0,25.542c0,3.87 1.546,5.033 8.121,5.033c6.584,-0 8.129,-0.775 8.129,-5.033l0,-25.542l6.967,-0Zm29.421,8.9l5.421,-0l-0,27.479l-8.904,0l-11.23,-22.833l-0.383,-0l0.383,22.833l-5.029,0l0,-27.479l8.513,-0l11.612,22.837l-0.383,-22.837Zm13.158,27.479l5.029,0l0,-27.479l-5.029,-0l0,27.479Zm35.221,-27.479l-8.521,27.479l-8.121,0l-8.52,-27.479l5.42,-0l6.967,22.837l0.392,0l6.966,-22.837l5.417,-0Zm10.058,11.225l12.78,-0l-0,4.254l-12.78,0l0,7.358l13.55,0l0,4.642l-18.966,0l-0,-27.479l18.579,-0l-0,4.646l-13.163,-0l0,6.579Zm25.546,2.708l0,-9.287l6.967,-0c3.875,-0 4.646,0.775 4.646,4.641c-0,3.871 -1.163,4.646 -5.029,4.646l-6.584,0Zm7.742,4.259c2.708,-0 3.483,1.937 3.483,3.87l0,5.421l5.421,0l0,-5.425c0,-3.871 -1.154,-5.804 -4.646,-6.191c4.646,-0.775 4.646,-3.484 4.646,-7.742c0,-6.192 -2.321,-7.742 -8.129,-8.129l-13.933,-0l-0,27.479l5.42,-0l0,-9.288l7.738,0l-0,0.005Zm20.125,0.387l-0,1.163c-0,3.1 1.554,3.483 6.192,3.483c4.645,-0 5.42,-0.775 5.42,-3.871c0,-3.871 -1.937,-3.483 -6.191,-3.871c-5.804,-0.387 -10.45,0 -10.45,-7.737c-0,-7.742 4.646,-7.742 11.221,-7.742c5.42,0 10.066,0 10.066,7.354l0,0.775l-5.029,0l0,-0.775c0,-3.096 -1.162,-3.096 -5.037,-3.096c-5.03,0 -5.805,0.388 -5.805,3.484c0,3.096 0.392,3.096 5.805,3.483c8.52,0.775 10.841,1.163 10.841,8.129c0,7.354 -3.875,8.129 -10.841,8.129c-5.805,0 -11.221,0.388 -11.221,-7.741l-0,-1.163l5.029,0l-0,-0.004Zm23.225,8.9l5.421,0l-0,-27.479l-5.421,-0l-0,27.479Zm24,0l-5.421,0l0,-22.833l-7.737,-0l-0,-4.646l20.895,-0l0,4.646l-7.737,-0l-0,22.833Zm28.637,-9.287l-9.675,-0l4.646,-13.934l5.029,13.934Zm-6.966,-24.384l-0,3.484l-3.484,-0l0,-3.484l3.484,0Zm7.737,0l0,3.484l-3.866,-0l-0,-3.484l3.866,0Zm0.392,28.25l1.546,5.421l5.421,0l-9.292,-27.479l-7.738,-0l-8.904,27.479l5.421,0l1.554,-5.421l11.992,0Zm22.837,5.421l-5.033,0l0,-22.833l-8.129,-0l-0,-4.646l21.292,-0l-0,4.646l-8.13,-0l0,22.833Zm-227.2,19.354l6.967,0l-9.675,36.379l-10.058,0l-7.359,-27.866l-0.383,-0l-7.354,27.866l-10.067,0l-9.287,-36.379l6.966,0l7.359,30.575l0.379,0l8.133,-30.575l8.129,0l8.121,30.575l8.129,-30.575Zm13.159,36.379l5.037,0l0,-27.091l-5.037,-0l-0,27.091Zm17.425,-15.866l12.766,-0l0,4.258l-12.766,0l-0,6.967l13.541,-0l0,4.641l-18.579,0l0,-27.091l18.579,-0l0,4.258l-13.541,0l-0,6.967Zm40.633,-11.225l5.421,-0l-0,27.091l-8.904,0l-11.613,-22.833l0.392,22.833l-5.421,0l0,-27.091l8.904,-0l11.613,22.45l-0.392,-22.45Zm-85.15,95.6l-11.612,36.379l-10.446,-0l-11.617,-36.379l6.975,-0l9.671,30.579l9.683,-30.579l7.346,-0Zm5.804,36.379l5.038,-0l-0,-27.092l-5.038,0l0,27.092Zm17.804,-15.867l12.78,0l-0,4.259l-12.78,-0l0,7.354l13.55,-0l0,4.254l-18.966,-0l-0,-27.092l18.579,0l-0,4.259l-13.163,-0l0,6.966Zm40.263,-11.225l5.408,0l0,27.092l-8.9,-0l-11.225,-22.833l-0.379,-0l0.379,22.833l-5.029,-0l0,-27.092l8.513,0l11.612,22.45l0.392,0l-0.771,-22.45Zm32.892,0l5.42,0l0,27.092l-8.512,-0l-11.613,-22.833l-0.391,-0l0.391,22.833l-5.037,-0l-0,-27.092l8.521,0l11.612,22.45l0.384,0l-0.775,-22.45Zm28.254,18.192l-9.292,-0l4.646,-14.325l4.646,14.325Zm1.166,3.871l1.93,5.029l5.037,-0l-8.904,-27.092l-7.738,0l-9.291,27.092l5.421,-0l1.937,-5.029l11.608,-0Zm-126.183,24.771l0,25.541c0,10.067 -6.192,10.842 -15.096,10.842c-8.512,-0 -15.087,-0.392 -15.087,-10.842l-0,-25.541l6.966,-0l0,25.541c0,3.875 1.546,5.034 8.121,5.034c6.584,-0 8.129,-1.159 8.129,-5.034l0,-25.541l6.967,-0Zm29.421,8.9l5.421,-0l-0,27.091l-8.904,0l-11.613,-22.446l0.383,22.446l-5.412,0l-0,-27.091l8.896,-0l11.612,22.837l-0.383,-22.837Zm12.767,27.091l5.42,0l0,-27.091l-5.42,-0l-0,27.091Zm35.612,-27.091l-8.9,27.091l-7.742,0l-8.52,-27.091l5.037,-0l7.35,22.837l7.358,-22.837l5.417,-0Zm9.679,11.225l12.767,-0l-0,4.258l-12.767,-0l0,7.354l13.542,0l-0,4.254l-18.579,0l-0,-27.091l18.579,-0l-0,4.645l-13.542,0l0,6.58Zm25.542,2.712l-0,-9.287l7.35,-0c3.875,-0 4.646,0.387 4.646,4.254c-0,4.254 -1.163,5.033 -5.029,5.033l-6.967,0Zm8.125,4.254c2.708,0 3.483,1.546 3.483,3.871l0,5.029l5.421,0l0,-5.029c0,-3.871 -1.154,-5.808 -4.646,-6.192c4.646,-0.775 4.646,-3.483 4.646,-7.737c0,-6.192 -2.321,-7.738 -8.129,-8.129l-13.933,-0l-0,27.091l5.037,0l0,-8.9l8.121,0l-0,-0.004Zm20.125,0.388l-0,1.158c-0,3.096 1.162,3.488 6.192,3.488c4.645,-0 5.42,-0.78 5.42,-3.875c0,-3.871 -1.937,-3.484 -6.191,-3.871c-5.804,-0.388 -10.45,-0 -10.45,-8.125c-0,-7.359 4.646,-7.359 11.221,-7.359c5.42,0 10.066,0 10.066,7.359l0,0.775l-5.421,-0l0,-0.775c0,-3.1 -1.162,-3.1 -4.645,-3.1c-5.413,-0 -6.192,0.391 -6.192,3.1c-0,3.483 0.783,3.483 6.192,3.871c8.129,0.775 10.458,1.158 10.458,8.125c-0,7.358 -3.492,8.129 -10.458,8.129c-6.192,-0 -11.605,0.387 -11.605,-7.742l0,-1.158l5.413,-0Zm23.225,8.512l5.421,0l-0,-27.091l-5.421,-0l-0,27.091Zm24,0l-5.421,0l0,-22.446l-7.737,0l-0,-4.645l20.895,-0l0,4.645l-7.737,0l-0,22.446Zm25.546,-10.45l-0,10.45l-5.421,0l-0,-10.45l-9.675,-16.641l5.8,-0l6.583,11.612l6.575,-11.612l6.196,-0l-10.058,16.641Zm41.021,-12.383c4.645,-0 6.575,0.392 6.575,5.421l-0,7.358c-0,5.417 -1.93,6.192 -6.575,6.192c-5.03,-0 -6.192,-0.779 -6.192,-6.192l-0,-7.358c-0,-4.259 0.771,-5.421 6.192,-5.421Zm-0,-4.258c-8.513,-0 -11.613,1.162 -11.613,9.675l0,7.358c0,8.9 3.1,10.45 11.613,10.45c8.129,-0 11.612,-1.55 11.612,-10.45l0,-7.358c0,-8.513 -3.871,-9.675 -11.612,-9.675Zm23.229,11.612l11.991,0l0,4.258l-11.991,0l-0,11.221l-5.038,0l0,-27.091l17.804,-0l0,4.645l-12.766,0l-0,6.967Zm-293.767,71.604l-6.967,0l0,-30.187l-10.841,-0l-0,-6.196l28.254,-0l-0,6.196l-10.446,-0l0,30.187Zm21.671,-15.871l12.775,0l-0,4.259l-12.775,-0l-0,6.971l13.55,-0l-0,4.641l-18.579,0l-0,-27.091l18.579,-0l-0,4.254l-13.55,-0l-0,6.966Zm36.767,-2.32l-0,-1.546c-0,-3.096 -1.155,-3.096 -5.805,-3.096c-5.42,-0 -6.191,0.775 -6.191,6.192l-0,5.808c-0,5.421 0.775,6.579 6.191,6.579c4.255,0 6.192,0 6.192,-3.871l0,-1.55l5.029,0l0,1.55c0,8.125 -4.646,8.125 -11.221,8.125c-9.675,0.388 -11.22,-2.708 -11.612,-10.45l-0,-6.191c-0,-8.905 3.483,-10.838 11.612,-10.838c6.575,0 10.45,0 10.834,7.738l-0,1.545l-5.029,0l-0,0.005Zm35.22,18.191l-5.42,0l-0,-11.612l-12.767,-0l-0,11.612l-5.029,0l-0,-27.091l5.029,-0l-0,10.833l12.767,-0l-0,-10.833l5.42,-0l0,27.091Zm27.484,-27.091l5.421,-0l-0,27.091l-8.905,0l-11.612,-22.837l0.392,22.837l-5.421,0l-0,-27.091l8.9,-0l11.616,22.45l-0.391,-22.45Zm23.608,4.254c4.646,-0 6.192,0.387 6.192,5.421l-0,7.354c-0,5.029 -1.546,5.808 -6.192,5.808c-5.421,0 -6.583,-0.387 -6.583,-5.808l-0,-7.354c0.391,-4.259 0.779,-5.421 6.583,-5.421Zm0,-4.642c-8.904,0 -11.612,1.546 -11.612,10.063l-0,7.354c-0,8.904 3.1,10.45 11.612,10.45c8.129,-0.388 11.613,-1.934 11.613,-10.45l-0,-7.354c-0,-8.905 -3.875,-10.063 -11.613,-10.063Zm23.608,22.838l12.384,-0l-0,4.641l-17.804,0l-0,-27.091l5.42,-0l0,22.45Zm28.646,-18.196c4.638,-0 6.192,0.387 6.192,5.421l-0,7.354c-0,5.029 -1.554,5.808 -6.192,5.808c-5.421,0 -6.583,-0.387 -6.583,-5.808l-0,-7.354c0.392,-4.259 0.771,-5.421 6.583,-5.421Zm0,-4.642c-8.904,0 -11.612,1.546 -11.612,10.063l-0,7.354c-0,8.904 3.091,10.45 11.612,10.45c8.121,-0.388 11.604,-1.934 11.604,-10.45l0,-7.354c0,-8.905 -3.866,-10.063 -11.604,-10.063Zm40.634,13.146l-0,4.654c-0,8.129 -1.93,9.675 -11.605,9.675c-8.904,0 -12.004,-1.158 -12.004,-10.45l0,-6.192c0,-9.287 3.484,-10.837 12.004,-10.837c6.575,-0 11.996,-0.392 11.605,8.512l-5.03,0c0,-4.254 -1.937,-3.87 -6.575,-3.87c-6.191,-0 -6.583,0.775 -6.583,6.191l0,6.192c0,5.417 0.775,6.192 6.583,6.192c5.03,-0 6.575,-0 6.575,-5.421l0,-0.775l-6.966,-0l-0,-3.871l11.996,-0Zm18.97,3.883l0,10.45l-5.033,0l0,-10.45l-10.067,-16.641l6.196,-0l6.575,11.608l6.584,-11.608l5.804,-0l-10.059,16.641Z" style="fill:#228bcd;"/></g></svg>